<svg aria-hidden="true" style="position:absolute;width:0;height:0" xmlns="http://www.w3.org/2000/svg" overflow="hidden"><defs><symbol id="icon-bubbles3" viewBox="0 0 36 32"><path d="M34 28.161a3.65 3.65 0 002 3.256v.498a7.42 7.42 0 01-6.414-2.251c-.819.218-1.688.336-2.587.336-4.971 0-9-3.582-9-8s4.029-8 9-8 9 3.582 9 8c0 1.73-.618 3.331-1.667 4.64a3.635 3.635 0 00-.333 1.522zM7.209 6.912C5.14 8.593 4 10.755 4 13c0 1.259.35 2.481 1.039 3.63.711 1.185 1.781 2.268 3.093 3.133a3.996 3.996 0 011.755 2.747c.056.375.091.753.105 1.129.233-.194.461-.401.684-.624a4 4 0 013.333-1.14 16.05 16.05 0 001.987.126v4c-.848 0-1.68-.054-2.492-.158-3.437 3.437-7.539 4.053-11.505 4.144v-.841c2.142-1.049 4-2.961 4-5.145 0-.305-.024-.604-.068-.897C2.312 20.721-.001 17.08-.001 13.001c0-7.18 7.163-13 16-13 8.702 0 15.781 5.644 15.995 12.672a12.196 12.196 0 00-4.133-1.018c-.36-1.752-1.419-3.401-3.07-4.742-1.104-.897-2.404-1.606-3.863-2.108-1.553-.534-3.211-.804-4.928-.804s-3.375.271-4.928.804c-1.46.502-2.76 1.211-3.863 2.108z"/></symbol><symbol id="icon-user" viewBox="0 0 32 32"><path d="M18 22.082v-1.649c2.203-1.241 4-4.337 4-7.432 0-4.971 0-9-6-9s-6 4.029-6 9c0 3.096 1.797 6.191 4 7.432v1.649C7.216 22.637 2 25.97 2 30h28c0-4.03-5.216-7.364-12-7.918z"/></symbol><symbol id="icon-mail2" viewBox="0 0 32 32"><path d="M26.667 0H5.334C2.4 0 0 2.4 0 5.334v21.332C0 29.602 2.4 32 5.334 32h21.333C29.601 32 32 29.602 32 26.666V5.334C32 2.4 29.601 0 26.667 0zm0 4c.25 0 .486.073.688.198L16 13.586 4.645 4.199c.202-.125.439-.198.689-.198h21.333zM5.334 28a1.32 1.32 0 01-.178-.013l7.051-9.78-.914-.914L4 24.586V5.488L16 20 28 5.488v19.098l-7.293-7.293-.914.914 7.051 9.78a1.294 1.294 0 01-.177.013H5.334z"/></symbol></defs></svg>